/* XPM */
static char *_f7914b18bec46c7ce6f8861bfd5b348zuK4VJ2obb8yRFDZ[] = {
/* columns rows colors chars-per-pixel */
"64 64 234 2 ",
"   c #020203",
".  c #0C0103",
"X  c #04040A",
"o  c #0A030A",
"O  c #0C0C0C",
"+  c #040A07",
"@  c #120101",
"#  c #160408",
"$  c #09120E",
"%  c #060612",
"&  c #130E15",
"*  c #141415",
"=  c #1B1B1D",
"-  c #191517",
";  c #0F150F",
":  c #240201",
">  c #2A0303",
",  c #290909",
"<  c #3B0201",
"1  c #340106",
"2  c #2A191F",
"3  c #1E231F",
"4  c #23231B",
"5  c #1E1D21",
"6  c #291D26",
"7  c #1A2322",
"8  c #242424",
"9  c #2B2B2B",
"0  c #272927",
"q  c #32282B",
"w  c #2D2C32",
"e  c #332D34",
"r  c #353536",
"t  c #3A3A3B",
"y  c #363939",
"u  c #283032",
"i  c #430202",
"p  c #4C0201",
"a  c #490607",
"s  c #530301",
"d  c #5A0406",
"f  c #560719",
"g  c #680407",
"h  c #740202",
"j  c #780308",
"k  c #6A0912",
"l  c #5E2222",
"z  c #733534",
"x  c #363443",
"c  c #453E44",
"v  c #3F4646",
"b  c #444444",
"n  c #4C4C4D",
"m  c #43454A",
"M  c #50484F",
"N  c #4A4D50",
"B  c #555455",
"V  c #5C5B5C",
"C  c #565659",
"Z  c #515051",
"A  c #75595D",
"S  c #615D5C",
"D  c #5A625D",
"F  c #65605D",
"G  c #575E61",
"H  c #695D65",
"J  c #5C6565",
"K  c #6B6C6C",
"L  c #656668",
"P  c #747373",
"I  c #767879",
"U  c #6F6E70",
"Y  c #840102",
"T  c #890406",
"R  c #9B0202",
"E  c #970509",
"W  c #981319",
"Q  c #8E0F16",
"!  c #A40103",
"~  c #AC020B",
"^  c #A90609",
"/  c #B40102",
"(  c #BC0203",
")  c #BC0903",
"_  c #BC030B",
"`  c #BC0B0B",
"'  c #B4080D",
"]  c #AC0C13",
"[  c #A70714",
"{  c #B80B15",
"}  c #A71419",
"|  c #B81317",
" . c #8E221F",
".. c #AF221D",
"X. c #AB1826",
"o. c #BC1625",
"O. c #9A2428",
"+. c #983738",
"@. c #892E34",
"#. c #A72227",
"$. c #B72023",
"%. c #A83137",
"&. c #C40105",
"*. c #CB0103",
"=. c #C40905",
"-. c #C4020A",
";. c #CA020A",
":. c #C30A0B",
">. c #CB0A05",
",. c #D20004",
"<. c #D1020A",
"1. c #D00A07",
"2. c #C30411",
"3. c #CB0311",
"4. c #C60C19",
"5. c #D30311",
"6. c #C91419",
"7. c #D31016",
"8. c #CB1F2C",
"9. c #C62728",
"0. c #C62932",
"q. c #C93838",
"w. c #D2262C",
"e. c #CA423F",
"r. c #D3443E",
"t. c #993943",
"y. c #CB3644",
"u. c #D13F40",
"i. c #9B4745",
"p. c #925252",
"a. c #AE4F4F",
"s. c #847A7C",
"d. c #987771",
"f. c #A97675",
"g. c #B3726A",
"h. c #A75665",
"j. c #CA4748",
"k. c #D4494B",
"l. c #D44B56",
"z. c #CC565B",
"x. c #D75656",
"c. c #D25255",
"v. c #E1585B",
"b. c #D2615D",
"n. c #DC596B",
"m. c #D86767",
"M. c #C87169",
"N. c #D6766C",
"B. c #D86D75",
"V. c #D8777C",
"C. c #CE6F6F",
"Z. c #E57B7E",
"A. c #E1696E",
"S. c #E15A69",
"D. c #7B857A",
"F. c #81807C",
"G. c #D78A7D",
"H. c #E3847D",
"J. c #797882",
"K. c #D27886",
"L. c #7A8382",
"P. c #848483",
"I. c #8B8C8D",
"U. c #878788",
"Y. c #938E91",
"T. c #939494",
"R. c #9B9B9A",
"E. c #979999",
"W. c #908F92",
"Q. c #AD9490",
"!. c #9BA29E",
"~. c #9A9DA2",
"^. c #9AA2A3",
"/. c #A4A3A4",
"(. c #ACADAC",
"). c #A6A9A9",
"_. c #B5ADB3",
"`. c #ADB6B5",
"'. c #B3B3B3",
"]. c #BBBBBB",
"[. c #B8B6B8",
"{. c #B1B0AE",
"}. c #B0A299",
"|. c #DB8989",
" X c #DB9896",
".X c #DA8F90",
"XX c #E38788",
"oX c #E58E90",
"OX c #E79997",
"+X c #EB9284",
"@X c #DAA599",
"#X c #C8AD9A",
"$X c #E5A59C",
"%X c #F4A79F",
"&X c #D999A1",
"*X c #D8B9BC",
"=X c #CEAFAF",
"-X c #E5A8A6",
";X c #E4B4B0",
":X c #BAC1BE",
">X c #D7C5B9",
",X c #BDBDC1",
"<X c #DABDC3",
"1X c #BFC3C1",
"2X c #C4C4C4",
"3X c #CBCBCB",
"4X c #C6C7C8",
"5X c #D5CCCD",
"6X c #CBD2CC",
"7X c #CBCBD0",
"8X c #CED3D3",
"9X c #D5D5D5",
"0X c #D6D6D9",
"qX c #DCDBDC",
"wX c #D8D7D7",
"eX c #D2CCD3",
"rX c #E3D8DC",
"tX c #DAE1D7",
"yX c #E6E5DE",
"uX c #D8DFE5",
"iX c #EBDCE6",
"pX c #DBE4E4",
"aX c #E3E3E3",
"sX c #ECECEC",
"dX c #E5EAE7",
"fX c #F1F3EE",
"gX c #EDECF1",
"hX c #E9F6F5",
"jX c #F4F4F4",
"kX c #FBF5F5",
"lX c #F5FDFC",
"zX c #FDFDFD",
"xX c #FBF6F8",
"cX c #EDF0EE",
/* pixels */
"&.&.&.&.&.&.&.&.&.;.&.&.&.&.&.&.&.&.;.( ) &.&.&.:.&.&.) ( *.*.=.( -.&.<.-.-.&.*.;.&.&.*.*.&.&.( &.&.&.&.&.&.&.&.&.&.&.&.&.&.&.&.",
"&.&.&.&.&.&.&.&.&.&.&.&.&.-.&.&.` &.*.&.-.;.&./ &.*.*.&.&.*.&.&.*.&.) ( =.( ( &.;.( ( ( -.( ;.*.&.&.&.&.&.&.&.&.-.&.&.&.&.&.&.&.",
"&.&.&.&.&.&.&.&.&.&.&.&.&.&.&.&.-.&.>.&.&.&.-.*.) { #.%.p.@.O.] ^ _ &.( &.<.<.( *.&.<.;.&.` ( <.&.&.&.&.&.&.&.&.&.&.;.&.&.&.&.&.",
"&.&.&.&.&.-.&.&.&.&.&.&.&.&.&.&.&.&.;.;.&.-.( ( +.*XdXlXgX(.[.5X#Xd.f.z d E _ &.&.=.( -.( &.:.( &.&.&.&.&.-.&.&.&.&.&.&.&.&.&.&.",
"&.&.&.&.&.&.&.&.&.&.&.&.&.&.&.&.&.<.&.( *.*.] i.6X6XyXzXzXpX^.rXlXaXiX[.7   i [ 2._ &.*.*.=.&.;.&.&.&.&.&.&.&.&.&.&.&.&.&.&.&.&.",
"&.&.&.&.&.&.&.&.&.&.&.&.-.&.&.&.&.-.( ;.*.R i 7 K pXaX9XzXfX/.).xXgXtXsXB     @ j O.E _ *.&.&.&.&.&.&.&.&.&.&.&.&.&.&.&.&.-.&.&.",
"&.&.&.&.&.&.&.&.&.&.&.&.&.&.&.&.) -.*.~ g :   X X C iXaX1XzXdX{.aXxX(.tXP X .   ; D.0 < E &.&.:.&.&.&.&.&.&.&.&.&.&.&.&.&.&.&.&.",
"&.&.&.&.-.&.&.&.&.&.&.-.&.&.&.&.&.*./ p + X o       V pX{.4XzXdX1X9XiX7X].= X     H J.+ < ^ *.&.&.&.&.&.&.&.&.&.&.&.-.&.&.&.&.&.",
"&.-.&.&.-.&.&.&.;.&.&.-.&.&.&.&.*.&.k .   + X X +   * I.wX'.fXzXjX{.6XqXpXn       m `.;   1 [ &.&.&.&.&.&.&.&.&.-.&.&.&.&.&.&.&.",
"&.&.&.&.&.&.&.&.&.&.&.&.&.&.&.&.*.E : +   . +         0 2XwXqXzXzX4X].dXxXJ.  X   V 8X3   . g &.&.&.&.&.&.&.;.&.&.&.&.&.&.&.&.&.",
"&.&.&.&.&.&.&.&.&.&.&.&.-.&.&.&.&.d   X . .         * m 9XqX{.jXxXaX].zXsXC       n 3X=   X > ~ &.&.&.&.&.&.&.&.&.&.;.&.-.&.&.&.",
"&.&.&.&.&.&.&.&.&.&.&.&.&.&.&.&.~ #   X + X X     O r /.jX4X1XzXzX4XwXjXT.- X +   B rX9   + . T &.-.&.&.&.&.-.&.&.&.&.&.&.&.&.&.",
"&.&.&.&.&.&.&.&.&.&.&.&.&.&.&.&.E @ o o   w I +   + & I sX/.aXzXzXjX0XP .   .     D rXt + X   d &.&.&.&.&.&.&.&.&.&.&.&.&.&.&.&.",
"&.&.&.&.&.&.&.&.&.&.&.&.&.&.&.&.R @ X   $ /.Y.8 5   O m 3X].0XzXwXP 8 O     + * V E.2X0   o X 1 ( &.&.&.&.&.&.&.&.&.&.&.&.&.&.&.",
"&.&.-.&.&.&.&.&.-.&.&.&.&.-.&.&.^ #     b /.9 {.0XP & y 0X].5XzX3X9 +   +   n 3XxXhXeXZ   X X > ( ( &.&.&.&.&.&.-.&.&.&.&.-.&.&.",
";.&.&.&.&.&.&.;.&.&.&.&.&.&.&.&.! o   4 ,XN C kXxXxXI.9 :X3X3XxXU     X   B dXzXzXlXqXT.O   X : ( ( ( &.&.&.;.&.&.&.&.&.&.&.&.&.",
"&.&.&.&.&.&.&.&.&._ -.*.&.&.&.*.R O X K 9Xe U.5X4XzXxX/.L (.rX2X8   X + V aXzXzXkX/.4X2Xb X   # E ,.&.&.&.>._ -.&.&.&.&.&.&.&.&.",
"&.&.&.&.&.&.&.-.*.&.;.*.&.( -.*.R . x yX5X= /.J /.dXzXzX9XE.T.L 8 t B R.sXzXzXzXxXI.U.].W.    . h -.=.;.&.&.( &.&.&.&.&.&.&.&.&.",
"&.&.&.&.&.&.&.&.&.&.&.;.&._ -.*.h   V tXwXe F.w (.dXjXjXzXdXsXsXqXsXxXxXjXdXzXzXzX2XH E.2X*     h -.&.-.&.-.=.&.&.&.&.&.&.&.&.&.",
"&.&.&.&.&.&.&.&.( -._ &.*.;.&.*.g   * `.eXe U r 0XaXjXsXjXcXwXdXxXjXzXdXwXsXjXzXzX7Xn T.6X*   . R &.&.) &.*.*.&.&.&.&.&.&.&.&.&.",
"&.&.&.-.&.&.&.&.( >.( -.&.=.-.| k # # T.9Xu m N gXzXzXxXaXaXqXqXxXcXaXaXqXdXjXzXxX4Xm I 9X9 . , } -.*.:.-.( ( ' &.&.&.&.&.&.-.&.",
"&.&.&.&.&.&.&.-.&.*.&.&.&.( _ j.&Xq . I 1X+   G sXsX9XqXaXsXyXaXzXsXwXaXaXjXjXgX3X/.y v W.& . A *Xz._ ( -.&.*.*.&.&.&.&.&.&.&.&.",
"&.&.&.&.&.&.&.&.&.*.&.&.=.&._ g.xX).O I.R.+ # J _.qXaXtXsXzXsXcXjXjXjXjXxXcXtXcXsX3XZ * C + - _.^.f.:.&.&.&.&.*.&.&.&.&.&.&.&.&.",
";.&.&.&.&.&.&.&.-.*.-.&.=.*.( d.1XdXB I.C   5 1XcXjXdXxXzXzXzXkXcXsXzXxXzXxXxX0X).0X[.& e X 9 L N g.( &.&.-.-.) &.&.;.&.&.&.&.&.",
"&.&.&.&.&.&.&.&.&.&.` ;.&.&.:.M.`.R.P Z 8 + s.E.n m 0 C /.'.9XsXcXsXsX/.C C t 9 0 I L.* .   O 9 ^.g.) *.&.-.&.-.&.&.&.&.&.&.&.&.",
"&.&.&.&.&.&.&.;.&.;._ *.&.&._ i.8X).t     9 [.3X).n 9 4 b y P sXzXgXI.b M w = b I.3X`.9     c (.:Xa.-.&.-.&.( &.&.-.&.&.-.&.&.&.",
"&.&.&.&.&.&.&.-.&.&.&.&.&.=.( #.pXI X o   L eXwX2X/.P U.).y b pXzXsXI n E.I.K T.2X*X9XK + $ x eXQ.$.&.( -.&.&.;.&.&.&.&.&.&.&.&.",
"&.&.&.&.&.&.&.&.&.;.&.*.=.&.&.' >XC m -   K uXcXsX2XE.(.P.y '.jXzXsXdXC r )./.'.rXkXfXR.$ I r ^.p.2.&.-.( *.&.-.&.&.&.&.&.&.&.&.",
"&.&.&.&.&.&.&.&.-.&.&.&.&.( *.( f./.U.L ; (.zXxXjXqX3X(.T.wXjXiXjXaXsX3XH K 3X3X0XzXxX[.- U.V /.#.;.( >.&.*.&.( &.&.&.&.-.&.&.&.",
"-.&.&.&.&.-.&.&.-.&.&.&.&.&.&.&.%.*X4XI.  [.zXzXcXsXaXaXzXjXjXwXjX0XjXxXsX].).3XlXjXzXR.2 /.3XQ._ -.( &.&.*.>.-.&.&.&.&.&.&.&.&.",
"&.&.&.&.&.&.&.&.&.( &.&.-.;.&.&.{ =XdX^.+ P zXzXjXzXxXzXzXcXzXdXjXdXzXjXzXzXxXlXzXzXzXI.M 9XyXa.&.=.&.-.;.&.&.-.&.&.&.&.&.&.&.&.",
"&.&.&.&.&.&.&.&.;.&.=.( &.&.-.&.&.Q.iX1X4 6 uXzXdXxXzXzXzXxXzXzXzXzXzXzXzXzXzXzXzXzXqXL K 8X>XX.&.&.*./ ;.&.&.-.-.&.&.;.&.&.&.&.",
"&.&.&.&.&.;.&.&.&.&.&.&.;.&.&.&.&.$.#X3Xb   I.zXxXzXzXzXjX0XlXzXzXzXxX9X0XzXsXjXzXzXP = D.tXa.:.-.&.&.&.&.&.&.&.&.&.&.&.&.&.&.&.",
"&.&.&.&.&.&.&.&.&.&.&.&.&.&.&.&.*.&.#.h.S - L rXzXzXzXxX].uXxXxXxXzXzXaX'.zXjXqXzX2X- 0 A a.^ &.-.&.&.&.&.&.&.&.&.&.&.&.&.&.&.&.",
"-.&.&.&.&.&.&.&.&.&.&.&.&.&.-.&.&.*.&.#.F.; D.2XzXzXzXjX,XR./.3XzXjX].U.'.jXzXzXzX).# B @.&.,.&.-.&.&.&.&.&.&.&.&.&.&.&.&.&.&.-.",
"&.&.&.&.&.&.&.&.&.&.&.&.&.&.&.&.) -.,.] R.= D 8XxXzXxXjX(.t - v ].R.9 8 r ].zXzXzX(.Z s.#.*.>.&.&.&.&.&.&.&.;.&.&.&.&.&.&.&.&.&.",
"&.&.&.&.&.&.&.&.-.&.&.&.&.&.&.&.-.&.&.( f.N 9 qXxXzXzXjXZ = 8 5 0 8 4 3 = P zXzXzX].P F.] =./ -.&.&.&.&.&.&.&.&.&.&.&.&.&.&.&.&.",
"&.&.&.&.&.&.&.-.&.&.&.&.&.&.&.&.&.<.=.&.p.U & [.zXzXzXpXb 5 0 5 = = 8 8 8 V jXzXzX8XP.p._ -.&.-.&.&.&.&.&.&.&.&.&.&.-.&.&.;.&.&.",
"&.&.&.&.&.&.&.&.&.&.&.&.&.&.&.&.-.*.( &.X.!.* U zXzXzXaXm 0 r b B n C n t K aXzXzX,XD.O.*.&.;.&.&.&.&.&.&.&.&.&.&.&.&.&.&.&.&.&.",
"&.&.-.&.&.&.&.&.-.&.&.&.&.&.-.&._ &.:.&.~ Q.K 8 qXzXsX9X{.'.[.1X2X4X].].].].3XzXxXW.P _ *.( -.=.&.&.&.&.&.&.&.&.&.&.&.&.&.&.&.&.",
"&.&.&.&.&.&.&.&.&.&.&.&.&.&.&.&.-.&.( &.;.+.6Xr Y.lXpXgXxXzX6XI I P H `.zXlXsXxX`.J.+.:.( &.;.-.&.&.&.&.&.&.&.&.&.&.&.&.&.&.&.-.",
"&.&.&.&.&.&.&.&.&.&.&.&.&.&.&.&.( <.&.&.&.[ f.).N tX0XzXzXzX`.$     O I xXzXaX3XK Q.} ( *.;.( ( &.&.&.&.&.&.&.&.&.&.&.&.&.&.&.&.",
"&.&.&.&.&.&.&.;.&.&.&.&.-.&.&.&.&.>.&.&.-.( W f.J W.qXfXzXzX_.A /._.I R.lXyXqXF F.i./ &.&.5.( &.&.&.&.&.&.&.&.&.&.&.&.&.&.&.&.&.",
"&.&.&.-.&.&.&.&.&.&.&.&.&.&.&.&.&.( -.&.( ;.( } p.A 8XzXzXzXzXlXzXzXlXzXzXxXT.b i.^ &.&.&.=.&.;.&.&.&.;.&.&.-.&.&.-.&.&.&.&.&.&.",
"&.&.&.&.&.&.&.&.&.;.&.&.&.&.&.&.&.( &.*.=.( ,.*.~ z Z wXzXzXlXzXxXzXzXzXzX[.2 f ^ >.&.&.&.) &.;.-.&.&.&.&.&.&.&.&.&.&.&.&.&.&.&.",
"&.-.&.&.&.&.&.&.&.&.&.&.&.&.&.&.&.&.&.*.&.&.( =.&.=.T z eXzXzXzXzXzXzXzX[.l Y _ *.&.&.;.( =.( -.&.&.&.&.&.&.&.&.&.&.&.&.;.&.&.&.",
"&.&.&.&.&.&.&.-.&.&.&.&.&.&.&.&.&.;.*.&.&.;.&./ &.&.&.! +.}.8XcXhXhXdX}. ._ &.=.&.;.-.&.*.&.-.&.&.&.&.&.&.&.-.&.&.&.&.-.&.&.&.&.",
"&.&.&.&.&.&.&.&.&.&.&.&.&.&.&.&.&.` ( &.:.( &.;.;.( ;.*.( R O.@.t.@. .^ ( &.-.-.=.*./ =.*.` ;.&.-.&.&.&.&.&.&.&.&.&.&.&.&.&.&.&.",
"&.&.&.&.&.&.&.&.&.&.( -.-.=.*.<.&.*.=.*.&.) ( *.*.&.>.&.=.=.*.&.( =.-.( <.( -.&.<.( >.,.` ( *.&.&.;.&.&.-.-.&.&.&.&.&.&.&.&.&.&.",
"&.&.-.&.&.&.&.&.;.*.&.-.&.&.~ E ! ( / ~ T ~ ;./ R E / ~ E ^ _ R ! -.R ~ R _ / ! R E ! R { *./ [ ! [ _ *.&.&.&.&.&.&.&.&.&.&.&.&.",
"&.&.&.&.&.&.&.&._ *.*.&.&._ j : d k d a p s ~ 3.a 1 j a i h f < < j > p p E d g , j d 1 s ;.E a i p ~ &./ &.;.( &.&.&.&.&.&.&.&.",
"&.&.&.&.&.-.&.&.` &.*.&.&.&.T : p a a a T d ! / 1 > g > > g < [ k d f T i a 1 s @ h i > h ( Y g j < T *.*.*.=.&.&.&.&.&.&.&.&.&.",
"&.&.&.&.&.&.&.&.-.&.&.-.&._ h < i p g a s < ^ ` < < d < p j a s < E d h a T d d , j p i h _ Y p j > h ,.,.*./ -.&.&.&.&.&.&.&.&.",
"&.&.&.&.&.&.&.&.&.&.&.-.;.&.' W } ' } { Q { 8.9.W X.$.X.[ X.{ Q E 6.] ' | 0.{ ! [ } ] o.} 9.' ] W  .4.&.) &.*.&.&.&.&.&.&.&.&.&.",
"&.&.&.&.&.&.&.&.-.&.( ( &.=.q.B.C.l.XXw. Xj.-X@Xj.-Xm.K.e.XXk.XXC.V.B.c.V.OXV.:.9.|.l.C.G.%XA.c.x.C.k.&.&.&.-.&.&.&.&.-.&.&.&.&.",
"&.-.;.&.&.&.&.&.&.*.=.=.*.&.0.XXOXH.XXk.>Xw.n.m.x.K.,. Xj.oXc..XS.;XXXm.$X9.9.*.1..X&Xc.OXy. XB.S.Z.c.( *.&.&.&.&.&.&.&.&.&.&.&.",
"&.&.&.&.&.&.&.&.) &.( &.-.*.4. X-X XZ.z.OXz.v.m.K.x.-..X$X<Xl. Xm.;X&Xm.OXy.n.{ =.m.-Xq.OX8.-XB.m.N.c.&.&.>.&.-.&.&.&.&.&.&.&.&.",
"&.&.-.&.&.&.&.&.&.*.&.&.) &.4.OXOX;XB.K.|.|.S.B.N.m.*.G.v.oXx.G.m.|.*Xm.-Xu.-X7.&.j..X8..X8.-XN.m.Z.k.( &.&.&.&.&.-.&.&.-.&.&.&.",
"&.&.&.&.&.&.&.&.&.<.&.&.=.*._ H.V. XC.OXXX$XC.C.k.%X0.oXu.|.l.oXm.A.;Xm.$Xm.$X:.-.e..X6.$XM..Xb.|.oXk.&.&.( &.( &.&.&.&.&.&.&.&.",
"&.&.&.&.&.&.&.&.&.*.-.&.&.;.&.e.q.e.w.v.| x.k.r.3.C.C.z.9.z.q.z.q.q.z.w.j.G.j.-.&.w.x./ j.+Xy.7.XXB.$.&.>.&.&.&.&.&.&.&.&.&.&.&.",
"&.&.&.&.&.&.&.&.-.&.&.=.( *.&.` ( -.*.&.,.( -.&.( &.3.;.>.&.*.&.<.-.-.&.2.&.<.=.&.&.&.( 3.3.-.&.) ` &.&.&.( &.;.&.&.&.&.-.&.&.&.",
"&.&.&.-.&.&.&.&.-.( ( =.&.&.;.&.&.-.( =.( -.&.*.( =.&.&.&.,.( :.( ( ;.*.>.;.&.&.=.*.&.&.( *._ =.*.*.*.*.( -.&.*.&.&.&.&.&.&.-.&.",
"&.&.&.;.&.&.;.&.&.( &.&.&.&.;.*.;.&.&.( :.&.&.&.&.&.-.;.-.( ;.-.( *.*.( *.&.&.=.&.<.` &.1./ &.&.( ( -.&.&.&.-.-.&.&.&.&.&.&.-.) ",
"&.&.&.&.&.&.&.&.&.&.;.&.&.` _ *.&.&.*.>.&.&.*.) _ *.*._ _ *.-.&.;.( ) ;.( ;.) &.&._ &.:.&.;.*.` *.&.( ) -.&.=.-.&.&.&.-.( &.&.&."
};
